<mxfile host="app.diagrams.net" modified="2023-08-12T08:36:35.135Z" agent="Mozilla/5.0 (Windows NT 10.0; Win64; x64) AppleWebKit/537.36 (KHTML, like Gecko) Chrome/115.0.0.0 Safari/537.36" etag="EfVf-FwgMXbYQObZw5aK" version="21.6.8" type="device">
  <diagram name="Страница — 1" id="YdCBkqUea3K0G_rOFqbE">
    <mxGraphModel dx="1165" dy="244" grid="1" gridSize="10" guides="1" tooltips="1" connect="1" arrows="1" fold="1" page="1" pageScale="1" pageWidth="827" pageHeight="1169" math="0" shadow="0">
      <root>
        <mxCell id="0" />
        <mxCell id="1" parent="0" />
        <mxCell id="W2HrHG4NhNGfXphdERLM-1" value="" style="whiteSpace=wrap;html=1;aspect=fixed;" vertex="1" parent="1">
          <mxGeometry x="-110" y="30" width="120" height="120" as="geometry" />
        </mxCell>
        <mxCell id="W2HrHG4NhNGfXphdERLM-3" value="&lt;font style=&quot;font-size: 25px;&quot;&gt;&lt;b&gt;MCU&lt;/b&gt;&lt;/font&gt;" style="text;html=1;strokeColor=none;fillColor=none;align=center;verticalAlign=middle;whiteSpace=wrap;rounded=0;" vertex="1" parent="1">
          <mxGeometry x="-80" y="65" width="60" height="30" as="geometry" />
        </mxCell>
        <mxCell id="W2HrHG4NhNGfXphdERLM-4" value="Brain" style="text;html=1;strokeColor=none;fillColor=none;align=center;verticalAlign=middle;whiteSpace=wrap;rounded=0;fontSize=20;" vertex="1" parent="1">
          <mxGeometry x="-85" y="95" width="70" height="40" as="geometry" />
        </mxCell>
        <mxCell id="W2HrHG4NhNGfXphdERLM-5" value="" style="rounded=0;whiteSpace=wrap;html=1;" vertex="1" parent="1">
          <mxGeometry x="280" y="210" width="130" height="70" as="geometry" />
        </mxCell>
        <mxCell id="W2HrHG4NhNGfXphdERLM-25" style="edgeStyle=orthogonalEdgeStyle;rounded=0;orthogonalLoop=1;jettySize=auto;html=1;exitX=0;exitY=0.5;exitDx=0;exitDy=0;entryX=0;entryY=0.5;entryDx=0;entryDy=0;" edge="1" parent="1" source="W2HrHG4NhNGfXphdERLM-9" target="W2HrHG4NhNGfXphdERLM-1">
          <mxGeometry relative="1" as="geometry" />
        </mxCell>
        <mxCell id="W2HrHG4NhNGfXphdERLM-9" value="" style="shape=ext;double=1;whiteSpace=wrap;html=1;aspect=fixed;" vertex="1" parent="1">
          <mxGeometry x="-130" y="320" width="140" height="140" as="geometry" />
        </mxCell>
        <mxCell id="W2HrHG4NhNGfXphdERLM-12" value="Computer" style="text;strokeColor=none;fillColor=none;html=1;fontSize=24;fontStyle=1;verticalAlign=middle;align=center;" vertex="1" parent="1">
          <mxGeometry x="-110" y="350" width="100" height="40" as="geometry" />
        </mxCell>
        <mxCell id="W2HrHG4NhNGfXphdERLM-14" value="CAN-Module" style="text;html=1;strokeColor=none;fillColor=none;align=center;verticalAlign=middle;whiteSpace=wrap;rounded=0;fontSize=20;" vertex="1" parent="1">
          <mxGeometry x="284" y="225" width="130" height="40" as="geometry" />
        </mxCell>
        <mxCell id="W2HrHG4NhNGfXphdERLM-19" value="" style="rounded=0;whiteSpace=wrap;html=1;" vertex="1" parent="1">
          <mxGeometry x="278" y="460" width="130" height="70" as="geometry" />
        </mxCell>
        <mxCell id="W2HrHG4NhNGfXphdERLM-20" value="CAN-Module" style="text;html=1;strokeColor=none;fillColor=none;align=center;verticalAlign=middle;whiteSpace=wrap;rounded=0;fontSize=20;" vertex="1" parent="1">
          <mxGeometry x="282" y="475" width="130" height="40" as="geometry" />
        </mxCell>
        <mxCell id="W2HrHG4NhNGfXphdERLM-26" value="" style="strokeWidth=2;html=1;shape=mxgraph.flowchart.start_2;whiteSpace=wrap;" vertex="1" parent="1">
          <mxGeometry x="310" y="65" width="70" height="70" as="geometry" />
        </mxCell>
        <mxCell id="W2HrHG4NhNGfXphdERLM-27" value="M" style="text;strokeColor=none;fillColor=none;html=1;fontSize=24;fontStyle=1;verticalAlign=middle;align=center;" vertex="1" parent="1">
          <mxGeometry x="334.37" y="90" width="21.25" height="25" as="geometry" />
        </mxCell>
        <mxCell id="W2HrHG4NhNGfXphdERLM-32" value="" style="strokeWidth=2;html=1;shape=mxgraph.flowchart.start_2;whiteSpace=wrap;" vertex="1" parent="1">
          <mxGeometry x="309.99" y="610" width="70" height="70" as="geometry" />
        </mxCell>
        <mxCell id="W2HrHG4NhNGfXphdERLM-33" value="M" style="text;strokeColor=none;fillColor=none;html=1;fontSize=24;fontStyle=1;verticalAlign=middle;align=center;" vertex="1" parent="1">
          <mxGeometry x="334.37" y="632.5" width="21.25" height="25" as="geometry" />
        </mxCell>
        <mxCell id="W2HrHG4NhNGfXphdERLM-48" value="" style="endArrow=classic;html=1;rounded=0;entryX=1.005;entryY=0.666;entryDx=0;entryDy=0;entryPerimeter=0;fillColor=#dae8fc;strokeColor=#0000FF;" edge="1" parent="1" target="W2HrHG4NhNGfXphdERLM-1">
          <mxGeometry width="50" height="50" relative="1" as="geometry">
            <mxPoint x="800" y="400" as="sourcePoint" />
            <mxPoint x="100" y="-60" as="targetPoint" />
            <Array as="points">
              <mxPoint x="800" y="380" />
              <mxPoint x="100" y="380" />
              <mxPoint x="100" y="110" />
            </Array>
          </mxGeometry>
        </mxCell>
        <mxCell id="W2HrHG4NhNGfXphdERLM-49" value="" style="endArrow=classic;html=1;rounded=0;entryX=1;entryY=0.5;entryDx=0;entryDy=0;fontColor=#FF0000;labelBackgroundColor=#FF3333;fillColor=#f8cecc;strokeColor=#FF0000;" edge="1" parent="1" target="W2HrHG4NhNGfXphdERLM-1">
          <mxGeometry width="50" height="50" relative="1" as="geometry">
            <mxPoint x="800" y="340" as="sourcePoint" />
            <mxPoint x="10" y="100" as="targetPoint" />
            <Array as="points">
              <mxPoint x="800" y="360" />
              <mxPoint x="120" y="360" />
              <mxPoint x="120" y="90" />
            </Array>
          </mxGeometry>
        </mxCell>
        <mxCell id="W2HrHG4NhNGfXphdERLM-61" value="" style="endArrow=none;html=1;rounded=0;fontColor=#FF0000;labelBackgroundColor=#FF3333;fillColor=#f8cecc;strokeColor=#FF0000;" edge="1" parent="1">
          <mxGeometry width="50" height="50" relative="1" as="geometry">
            <mxPoint x="790" y="340" as="sourcePoint" />
            <mxPoint x="810" y="340" as="targetPoint" />
            <Array as="points">
              <mxPoint x="800" y="340" />
            </Array>
          </mxGeometry>
        </mxCell>
        <mxCell id="W2HrHG4NhNGfXphdERLM-62" value="" style="endArrow=none;html=1;rounded=0;fillColor=#dae8fc;strokeColor=#0000FF;" edge="1" parent="1">
          <mxGeometry width="50" height="50" relative="1" as="geometry">
            <mxPoint x="790" y="400" as="sourcePoint" />
            <mxPoint x="810" y="400" as="targetPoint" />
            <Array as="points">
              <mxPoint x="800" y="400" />
            </Array>
          </mxGeometry>
        </mxCell>
        <mxCell id="W2HrHG4NhNGfXphdERLM-63" value="" style="endArrow=classic;html=1;rounded=0;entryX=0.395;entryY=1.01;entryDx=0;entryDy=0;entryPerimeter=0;fontColor=#FF0000;labelBackgroundColor=#FF3333;fillColor=#f8cecc;strokeColor=#FF0000;" edge="1" parent="1">
          <mxGeometry width="50" height="50" relative="1" as="geometry">
            <mxPoint x="362.43" y="360" as="sourcePoint" />
            <mxPoint x="362.78000000000014" y="280.69999999999993" as="targetPoint" />
          </mxGeometry>
        </mxCell>
        <mxCell id="W2HrHG4NhNGfXphdERLM-64" value="" style="endArrow=classic;html=1;rounded=0;fillColor=#dae8fc;strokeColor=#0000FF;" edge="1" parent="1">
          <mxGeometry width="50" height="50" relative="1" as="geometry">
            <mxPoint x="381.43" y="380" as="sourcePoint" />
            <mxPoint x="381.43" y="280" as="targetPoint" />
          </mxGeometry>
        </mxCell>
        <mxCell id="W2HrHG4NhNGfXphdERLM-65" value="" style="endArrow=classic;html=1;rounded=0;fontColor=#FF0000;labelBackgroundColor=#FF3333;fillColor=#f8cecc;strokeColor=#FF0000;" edge="1" parent="1">
          <mxGeometry width="50" height="50" relative="1" as="geometry">
            <mxPoint x="310" y="360" as="sourcePoint" />
            <mxPoint x="310" y="460" as="targetPoint" />
          </mxGeometry>
        </mxCell>
        <mxCell id="W2HrHG4NhNGfXphdERLM-66" value="" style="endArrow=classic;html=1;rounded=0;entryX=0.364;entryY=0.01;entryDx=0;entryDy=0;entryPerimeter=0;fillColor=#dae8fc;strokeColor=#0000FF;" edge="1" parent="1">
          <mxGeometry width="50" height="50" relative="1" as="geometry">
            <mxPoint x="330" y="380" as="sourcePoint" />
            <mxPoint x="330.5" y="460" as="targetPoint" />
          </mxGeometry>
        </mxCell>
        <mxCell id="W2HrHG4NhNGfXphdERLM-68" value="" style="endArrow=classic;html=1;rounded=0;fontColor=#FF0000;labelBackgroundColor=#FF3333;fillColor=#f8cecc;strokeColor=#FF0000;" edge="1" parent="1">
          <mxGeometry width="50" height="50" relative="1" as="geometry">
            <mxPoint x="640" y="360" as="sourcePoint" />
            <mxPoint x="640" y="460" as="targetPoint" />
          </mxGeometry>
        </mxCell>
        <mxCell id="W2HrHG4NhNGfXphdERLM-69" value="" style="endArrow=classic;html=1;rounded=0;entryX=0.364;entryY=0.005;entryDx=0;entryDy=0;entryPerimeter=0;fillColor=#dae8fc;strokeColor=#0000FF;" edge="1" parent="1">
          <mxGeometry width="50" height="50" relative="1" as="geometry">
            <mxPoint x="660" y="380" as="sourcePoint" />
            <mxPoint x="659.3200000000002" y="460.35" as="targetPoint" />
          </mxGeometry>
        </mxCell>
        <mxCell id="W2HrHG4NhNGfXphdERLM-70" value="" style="endArrow=classic;html=1;rounded=0;entryX=0.376;entryY=1.007;entryDx=0;entryDy=0;entryPerimeter=0;fontColor=#FF0000;labelBackgroundColor=#FF3333;fillColor=#f8cecc;strokeColor=#FF0000;" edge="1" parent="1">
          <mxGeometry width="50" height="50" relative="1" as="geometry">
            <mxPoint x="688.88" y="358.51" as="sourcePoint" />
            <mxPoint x="688.7599999999999" y="280" as="targetPoint" />
          </mxGeometry>
        </mxCell>
        <mxCell id="W2HrHG4NhNGfXphdERLM-71" value="" style="endArrow=classic;html=1;rounded=0;entryX=0.535;entryY=1.007;entryDx=0;entryDy=0;entryPerimeter=0;fillColor=#dae8fc;strokeColor=#0000FF;" edge="1" parent="1">
          <mxGeometry width="50" height="50" relative="1" as="geometry">
            <mxPoint x="709.88" y="379.51" as="sourcePoint" />
            <mxPoint x="709.43" y="280" as="targetPoint" />
          </mxGeometry>
        </mxCell>
        <mxCell id="W2HrHG4NhNGfXphdERLM-73" value="" style="endArrow=none;html=1;rounded=0;exitX=0.384;exitY=-0.004;exitDx=0;exitDy=0;exitPerimeter=0;entryX=0.286;entryY=0.947;entryDx=0;entryDy=0;entryPerimeter=0;" edge="1" parent="1" source="W2HrHG4NhNGfXphdERLM-5" target="W2HrHG4NhNGfXphdERLM-26">
          <mxGeometry width="50" height="50" relative="1" as="geometry">
            <mxPoint x="329.84" y="197.5" as="sourcePoint" />
            <mxPoint x="330" y="138" as="targetPoint" />
          </mxGeometry>
        </mxCell>
        <mxCell id="W2HrHG4NhNGfXphdERLM-74" value="" style="endArrow=none;html=1;rounded=0;entryX=0.431;entryY=0.999;entryDx=0;entryDy=0;entryPerimeter=0;" edge="1" parent="1" target="W2HrHG4NhNGfXphdERLM-26">
          <mxGeometry width="50" height="50" relative="1" as="geometry">
            <mxPoint x="340" y="210" as="sourcePoint" />
            <mxPoint x="339.84" y="137.5" as="targetPoint" />
          </mxGeometry>
        </mxCell>
        <mxCell id="W2HrHG4NhNGfXphdERLM-75" value="" style="endArrow=none;html=1;rounded=0;exitX=0.538;exitY=0.007;exitDx=0;exitDy=0;exitPerimeter=0;entryX=0.577;entryY=0.984;entryDx=0;entryDy=0;entryPerimeter=0;" edge="1" parent="1" source="W2HrHG4NhNGfXphdERLM-5" target="W2HrHG4NhNGfXphdERLM-26">
          <mxGeometry width="50" height="50" relative="1" as="geometry">
            <mxPoint x="349.84" y="197.5" as="sourcePoint" />
            <mxPoint x="349.84" y="137.5" as="targetPoint" />
          </mxGeometry>
        </mxCell>
        <mxCell id="W2HrHG4NhNGfXphdERLM-76" value="" style="endArrow=none;html=1;rounded=0;entryX=0.715;entryY=0.944;entryDx=0;entryDy=0;entryPerimeter=0;" edge="1" parent="1" target="W2HrHG4NhNGfXphdERLM-26">
          <mxGeometry width="50" height="50" relative="1" as="geometry">
            <mxPoint x="360" y="210" as="sourcePoint" />
            <mxPoint x="359.84" y="137.5" as="targetPoint" />
          </mxGeometry>
        </mxCell>
        <mxCell id="W2HrHG4NhNGfXphdERLM-77" value="" style="rounded=0;whiteSpace=wrap;html=1;" vertex="1" parent="1">
          <mxGeometry x="608" y="210" width="130" height="70" as="geometry" />
        </mxCell>
        <mxCell id="W2HrHG4NhNGfXphdERLM-78" value="CAN-Module" style="text;html=1;strokeColor=none;fillColor=none;align=center;verticalAlign=middle;whiteSpace=wrap;rounded=0;fontSize=20;" vertex="1" parent="1">
          <mxGeometry x="612" y="225" width="130" height="40" as="geometry" />
        </mxCell>
        <mxCell id="W2HrHG4NhNGfXphdERLM-79" value="" style="strokeWidth=2;html=1;shape=mxgraph.flowchart.start_2;whiteSpace=wrap;" vertex="1" parent="1">
          <mxGeometry x="638" y="65" width="70" height="70" as="geometry" />
        </mxCell>
        <mxCell id="W2HrHG4NhNGfXphdERLM-80" value="M" style="text;strokeColor=none;fillColor=none;html=1;fontSize=24;fontStyle=1;verticalAlign=middle;align=center;" vertex="1" parent="1">
          <mxGeometry x="662.37" y="87.5" width="21.25" height="25" as="geometry" />
        </mxCell>
        <mxCell id="W2HrHG4NhNGfXphdERLM-81" value="" style="endArrow=none;html=1;rounded=0;exitX=0.384;exitY=-0.004;exitDx=0;exitDy=0;exitPerimeter=0;entryX=0.286;entryY=0.947;entryDx=0;entryDy=0;entryPerimeter=0;" edge="1" parent="1" source="W2HrHG4NhNGfXphdERLM-77" target="W2HrHG4NhNGfXphdERLM-79">
          <mxGeometry width="50" height="50" relative="1" as="geometry">
            <mxPoint x="657.8399999999999" y="197.5" as="sourcePoint" />
            <mxPoint x="658" y="138" as="targetPoint" />
          </mxGeometry>
        </mxCell>
        <mxCell id="W2HrHG4NhNGfXphdERLM-82" value="" style="endArrow=none;html=1;rounded=0;entryX=0.431;entryY=0.999;entryDx=0;entryDy=0;entryPerimeter=0;" edge="1" parent="1" target="W2HrHG4NhNGfXphdERLM-79">
          <mxGeometry width="50" height="50" relative="1" as="geometry">
            <mxPoint x="668" y="210" as="sourcePoint" />
            <mxPoint x="667.8399999999999" y="137.5" as="targetPoint" />
          </mxGeometry>
        </mxCell>
        <mxCell id="W2HrHG4NhNGfXphdERLM-83" value="" style="endArrow=none;html=1;rounded=0;exitX=0.538;exitY=0.007;exitDx=0;exitDy=0;exitPerimeter=0;entryX=0.577;entryY=0.984;entryDx=0;entryDy=0;entryPerimeter=0;" edge="1" parent="1" source="W2HrHG4NhNGfXphdERLM-77" target="W2HrHG4NhNGfXphdERLM-79">
          <mxGeometry width="50" height="50" relative="1" as="geometry">
            <mxPoint x="677.8399999999999" y="197.5" as="sourcePoint" />
            <mxPoint x="677.8399999999999" y="137.5" as="targetPoint" />
          </mxGeometry>
        </mxCell>
        <mxCell id="W2HrHG4NhNGfXphdERLM-84" value="" style="endArrow=none;html=1;rounded=0;entryX=0.715;entryY=0.944;entryDx=0;entryDy=0;entryPerimeter=0;" edge="1" parent="1" target="W2HrHG4NhNGfXphdERLM-79">
          <mxGeometry width="50" height="50" relative="1" as="geometry">
            <mxPoint x="688" y="210" as="sourcePoint" />
            <mxPoint x="687.8399999999999" y="137.5" as="targetPoint" />
          </mxGeometry>
        </mxCell>
        <mxCell id="W2HrHG4NhNGfXphdERLM-85" value="" style="endArrow=none;html=1;rounded=0;entryX=0.286;entryY=0.947;entryDx=0;entryDy=0;entryPerimeter=0;exitX=0.289;exitY=0.035;exitDx=0;exitDy=0;exitPerimeter=0;" edge="1" parent="1" source="W2HrHG4NhNGfXphdERLM-32">
          <mxGeometry width="50" height="50" relative="1" as="geometry">
            <mxPoint x="329" y="615" as="sourcePoint" />
            <mxPoint x="329.59000000000003" y="530" as="targetPoint" />
          </mxGeometry>
        </mxCell>
        <mxCell id="W2HrHG4NhNGfXphdERLM-86" value="" style="endArrow=none;html=1;rounded=0;exitX=0.428;exitY=0.009;exitDx=0;exitDy=0;exitPerimeter=0;" edge="1" parent="1" source="W2HrHG4NhNGfXphdERLM-32">
          <mxGeometry width="50" height="50" relative="1" as="geometry">
            <mxPoint x="339.59000000000003" y="609" as="sourcePoint" />
            <mxPoint x="340" y="530" as="targetPoint" />
          </mxGeometry>
        </mxCell>
        <mxCell id="W2HrHG4NhNGfXphdERLM-87" value="" style="endArrow=none;html=1;rounded=0;exitX=0.57;exitY=0.011;exitDx=0;exitDy=0;exitPerimeter=0;entryX=0.522;entryY=1.006;entryDx=0;entryDy=0;entryPerimeter=0;" edge="1" parent="1" source="W2HrHG4NhNGfXphdERLM-32">
          <mxGeometry width="50" height="50" relative="1" as="geometry">
            <mxPoint x="349.59000000000003" y="609" as="sourcePoint" />
            <mxPoint x="349.8600000000001" y="530.4200000000001" as="targetPoint" />
          </mxGeometry>
        </mxCell>
        <mxCell id="W2HrHG4NhNGfXphdERLM-88" value="" style="endArrow=none;html=1;rounded=0;entryX=0.715;entryY=0.944;entryDx=0;entryDy=0;entryPerimeter=0;exitX=0.707;exitY=0.04;exitDx=0;exitDy=0;exitPerimeter=0;" edge="1" parent="1" source="W2HrHG4NhNGfXphdERLM-32">
          <mxGeometry width="50" height="50" relative="1" as="geometry">
            <mxPoint x="359.59000000000003" y="609" as="sourcePoint" />
            <mxPoint x="359.59000000000003" y="530" as="targetPoint" />
          </mxGeometry>
        </mxCell>
        <mxCell id="W2HrHG4NhNGfXphdERLM-89" value="" style="rounded=0;whiteSpace=wrap;html=1;" vertex="1" parent="1">
          <mxGeometry x="610" y="460" width="130" height="70" as="geometry" />
        </mxCell>
        <mxCell id="W2HrHG4NhNGfXphdERLM-90" value="CAN-Module" style="text;html=1;strokeColor=none;fillColor=none;align=center;verticalAlign=middle;whiteSpace=wrap;rounded=0;fontSize=20;" vertex="1" parent="1">
          <mxGeometry x="614" y="475" width="130" height="40" as="geometry" />
        </mxCell>
        <mxCell id="W2HrHG4NhNGfXphdERLM-91" value="" style="strokeWidth=2;html=1;shape=mxgraph.flowchart.start_2;whiteSpace=wrap;" vertex="1" parent="1">
          <mxGeometry x="637.99" y="610" width="70" height="70" as="geometry" />
        </mxCell>
        <mxCell id="W2HrHG4NhNGfXphdERLM-92" value="M" style="text;strokeColor=none;fillColor=none;html=1;fontSize=24;fontStyle=1;verticalAlign=middle;align=center;" vertex="1" parent="1">
          <mxGeometry x="662.37" y="632.5" width="21.25" height="25" as="geometry" />
        </mxCell>
        <mxCell id="W2HrHG4NhNGfXphdERLM-93" value="" style="endArrow=none;html=1;rounded=0;entryX=0.286;entryY=0.947;entryDx=0;entryDy=0;entryPerimeter=0;exitX=0.289;exitY=0.035;exitDx=0;exitDy=0;exitPerimeter=0;" edge="1" parent="1" source="W2HrHG4NhNGfXphdERLM-91">
          <mxGeometry width="50" height="50" relative="1" as="geometry">
            <mxPoint x="657" y="615" as="sourcePoint" />
            <mxPoint x="657.59" y="530" as="targetPoint" />
          </mxGeometry>
        </mxCell>
        <mxCell id="W2HrHG4NhNGfXphdERLM-94" value="" style="endArrow=none;html=1;rounded=0;exitX=0.428;exitY=0.009;exitDx=0;exitDy=0;exitPerimeter=0;" edge="1" parent="1" source="W2HrHG4NhNGfXphdERLM-91">
          <mxGeometry width="50" height="50" relative="1" as="geometry">
            <mxPoint x="667.59" y="609" as="sourcePoint" />
            <mxPoint x="668" y="530" as="targetPoint" />
          </mxGeometry>
        </mxCell>
        <mxCell id="W2HrHG4NhNGfXphdERLM-95" value="" style="endArrow=none;html=1;rounded=0;exitX=0.57;exitY=0.011;exitDx=0;exitDy=0;exitPerimeter=0;entryX=0.522;entryY=1.006;entryDx=0;entryDy=0;entryPerimeter=0;" edge="1" parent="1" source="W2HrHG4NhNGfXphdERLM-91" target="W2HrHG4NhNGfXphdERLM-89">
          <mxGeometry width="50" height="50" relative="1" as="geometry">
            <mxPoint x="677.59" y="609" as="sourcePoint" />
            <mxPoint x="678" y="533" as="targetPoint" />
          </mxGeometry>
        </mxCell>
        <mxCell id="W2HrHG4NhNGfXphdERLM-96" value="" style="endArrow=none;html=1;rounded=0;entryX=0.715;entryY=0.944;entryDx=0;entryDy=0;entryPerimeter=0;exitX=0.707;exitY=0.04;exitDx=0;exitDy=0;exitPerimeter=0;" edge="1" parent="1" source="W2HrHG4NhNGfXphdERLM-91">
          <mxGeometry width="50" height="50" relative="1" as="geometry">
            <mxPoint x="687.59" y="609" as="sourcePoint" />
            <mxPoint x="687.59" y="530" as="targetPoint" />
          </mxGeometry>
        </mxCell>
        <mxCell id="W2HrHG4NhNGfXphdERLM-97" value="&lt;font style=&quot;font-size: 17px;&quot;&gt;G-code&lt;/font&gt;" style="text;html=1;strokeColor=none;fillColor=none;align=center;verticalAlign=middle;whiteSpace=wrap;rounded=0;" vertex="1" parent="1">
          <mxGeometry x="-100" y="390" width="80" height="40" as="geometry" />
        </mxCell>
        <mxCell id="W2HrHG4NhNGfXphdERLM-98" value="&lt;ul&gt;&lt;li&gt;&lt;span style=&quot;background-color: initial;&quot;&gt;Wi-Fi&lt;/span&gt;&lt;br&gt;&lt;/li&gt;&lt;li&gt;SPI&lt;/li&gt;&lt;li&gt;UART&lt;/li&gt;&lt;/ul&gt;" style="text;strokeColor=none;fillColor=none;html=1;whiteSpace=wrap;verticalAlign=middle;overflow=hidden;" vertex="1" parent="1">
          <mxGeometry x="-230" y="265" width="90" height="80" as="geometry" />
        </mxCell>
        <mxCell id="W2HrHG4NhNGfXphdERLM-102" value="&lt;font color=&quot;#ff3333&quot;&gt;CAN-H&lt;/font&gt;" style="text;html=1;align=center;verticalAlign=middle;whiteSpace=wrap;rounded=0;" vertex="1" parent="1">
          <mxGeometry x="30" y="65" width="60" height="20" as="geometry" />
        </mxCell>
        <mxCell id="W2HrHG4NhNGfXphdERLM-111" value="&lt;font color=&quot;#0000ff&quot;&gt;CAN-L&lt;/font&gt;" style="text;html=1;strokeColor=none;fillColor=none;align=center;verticalAlign=middle;whiteSpace=wrap;rounded=0;" vertex="1" parent="1">
          <mxGeometry x="30" y="112.5" width="60" height="17.5" as="geometry" />
        </mxCell>
      </root>
    </mxGraphModel>
  </diagram>
</mxfile>
